{"accessors":[{"bufferView":0,"byteOffset":0,"componentType":5126,"count":1680,"max":[10,22.5,9.502719],"min":[-16.499851,-22.5,-9.502719],"normalized":false,"type":"VEC3"},{"bufferView":1,"byteOffset":0,"componentType":5126,"count":1680,"max":[1,0.99672,0.980793,1],"min":[-1,-1,-1,-1],"normalized":false,"type":"VEC4"},{"bufferView":2,"byteOffset":0,"componentType":5126,"count":1680,"max":[1,1,1],"min":[-1,-1,-1],"normalized":false,"type":"VEC3"},{"bufferView":3,"byteOffset":0,"componentType":5126,"count":1680,"max":[1,1],"min":[0,0],"normalized":false,"type":"VEC2"},{"bufferView":4,"byteOffset":0,"componentType":5125,"count":1680,"max":[1679],"min":[0],"normalized":false,"type":"SCALAR"},{"bufferView":5,"byteOffset":0,"componentType":5126,"count":1893,"max":[8,22.5,7.502749],"min":[-8,-22.5,-7.502749],"normalized":false,"type":"VEC3"},{"bufferView":6,"byteOffset":0,"componentType":5126,"count":1893,"max":[0.980792,0.99853,0.980832,1],"min":[-0.9808,-0.998528,-1,-1],"normalized":false,"type":"VEC4"},{"bufferView":7,"byteOffset":0,"componentType":5126,"count":1893,"max":[0.980808,0.000042,0.980793],"min":[-0.980826,-0.000042,-0.980789],"normalized":false,"type":"VEC3"},{"bufferView":8,"byteOffset":0,"componentType":5126,"count":1893,"max":[0.9375,0.95],"min":[0,0.05],"normalized":false,"type":"VEC2"},{"bufferView":9,"byteOffset":0,"componentType":5125,"count":1893,"max":[1892],"min":[0],"normalized":false,"type":"SCALAR"},{"bufferView":10,"byteOffset":0,"componentType":5126,"count":1902,"max":[10,22.5,9.502719],"min":[-10,-22.5,-9.502719],"normalized":false,"type":"VEC3"},{"bufferView":11,"byteOffset":0,"componentType":5126,"count":1902,"max":[0.564301,0.9808,0.980908,1],"min":[-0.872668,-1,-1,-1],"normalized":false,"type":"VEC4"},{"bufferView":12,"byteOffset":0,"componentType":5126,"count":1902,"max":[1,0.981051,0.980793],"min":[-1,-0.980801,-0.980789],"normalized":false,"type":"VEC3"},{"bufferView":13,"byteOffset":0,"componentType":5126,"count":1902,"max":[0.95,0.947023],"min":[0,0.052977],"normalized":false,"type":"VEC2"},{"bufferView":14,"byteOffset":0,"componentType":5125,"count":1902,"max":[1901],"min":[0],"normalized":false,"type":"SCALAR"},{"bufferView":15,"byteOffset":0,"componentType":5126,"count":2895,"max":[8,22.500002,10],"min":[-7.999999,-22.5,-10],"normalized":false,"type":"VEC3"},{"bufferView":16,"byteOffset":0,"componentType":5126,"count":2895,"max":[1,0.980807,0.980793,1],"min":[-0.980804,-1,-1,-1],"normalized":false,"type":"VEC4"},{"bufferView":17,"byteOffset":0,"componentType":5126,"count":2895,"max":[0.980793,1,1],"min":[-0.980793,-1,-1],"normalized":false,"type":"VEC3"},{"bufferView":18,"byteOffset":0,"componentType":5126,"count":2895,"max":[1,1],"min":[0,0],"normalized":false,"type":"VEC2"},{"bufferView":19,"byteOffset":0,"componentType":5125,"count":2895,"max":[2894],"min":[0],"normalized":false,"type":"SCALAR"}],"asset":{"generator":"Godot Engine v4.2.1.stable.official@b09f793f564a6c95dc76acc654b390e68441bd01","version":"2.0"},"bufferViews":[{"buffer":0,"byteLength":20160,"byteOffset":0},{"buffer":0,"byteLength":26880,"byteOffset":20160},{"buffer":0,"byteLength":20160,"byteOffset":47040},{"buffer":0,"byteLength":13440,"byteOffset":67200},{"buffer":0,"byteLength":6720,"byteOffset":80640},{"buffer":0,"byteLength":22716,"byteOffset":87360},{"buffer":0,"byteLength":30288,"byteOffset":110076},{"buffer":0,"byteLength":22716,"byteOffset":140364},{"buffer":0,"byteLength":15144,"byteOffset":163080},{"buffer":0,"byteLength":7572,"byteOffset":178224},{"buffer":0,"byteLength":22824,"byteOffset":185796},{"buffer":0,"byteLength":30432,"byteOffset":208620},{"buffer":0,"byteLength":22824,"byteOffset":239052},{"buffer":0,"byteLength":15216,"byteOffset":261876},{"buffer":0,"byteLength":7608,"byteOffset":277092},{"buffer":0,"byteLength":34740,"byteOffset":284700},{"buffer":0,"byteLength":46320,"byteOffset":319440},{"buffer":0,"byteLength":34740,"byteOffset":365760},{"buffer":0,"byteLength":23160,"byteOffset":400500},{"buffer":0,"byteLength":11580,"byteOffset":423660}],"buffers":[{"byteLength":435240,"uri":"Node3D0.bin"}],"extensionsUsed":["GODOT_single_root"],"images":[{"uri":"textures%2F_albedo000.png"},{"uri":"textures%2F_albedo002.png"},{"uri":"textures%2F_albedo003.png"},{"uri":"textures%2F_albedo004.png"}],"materials":[{"extensions":{},"pbrMetallicRoughness":{"baseColorFactor":[0.291771054267883,0.533276796340942,0.879622220993042,1],"baseColorTexture":{"index":0},"metallicFactor":0,"roughnessFactor":1}},{"extensions":{},"pbrMetallicRoughness":{"baseColorFactor":[0.407239854335785,0.99999988079071,0.31398817896843,1],"baseColorTexture":{"index":1},"metallicFactor":0,"roughnessFactor":1}},{"extensions":{},"pbrMetallicRoughness":{"baseColorFactor":[0.991100966930389,0.327777922153473,0.54572468996048,1],"baseColorTexture":{"index":2},"metallicFactor":0,"roughnessFactor":1}},{"extensions":{},"pbrMetallicRoughness":{"baseColorFactor":[0.904661655426025,0.791298449039459,0.52099609375,1],"baseColorTexture":{"index":3},"metallicFactor":0,"roughnessFactor":1}}],"meshes":[{"extras":{"targetNames":[]},"primitives":[{"attributes":{"NORMAL":2,"POSITION":0,"TANGENT":1,"TEXCOORD_0":3},"indices":4,"material":0,"mode":4},{"attributes":{"NORMAL":7,"POSITION":5,"TANGENT":6,"TEXCOORD_0":8},"indices":9,"material":1,"mode":4},{"attributes":{"NORMAL":12,"POSITION":10,"TANGENT":11,"TEXCOORD_0":13},"indices":14,"material":2,"mode":4},{"attributes":{"NORMAL":17,"POSITION":15,"TANGENT":16,"TEXCOORD_0":18},"indices":19,"material":3,"mode":4}]}],"nodes":[{"children":[1],"extensions":{},"name":"Node3D"},{"children":[2,3,4,5,6,7,8,9,10,11,12],"extensions":{},"mesh":0,"name":"CSGCombiner3D2"},{"extensions":{},"name":"CSGCylinder3D"},{"extensions":{},"name":"CSGCylinder3D2"},{"extensions":{},"name":"CSGBox3D"},{"extensions":{},"name":"CSGBox3D2","translation":[-9.49985027313232,-11,0]},{"extensions":{},"name":"CSGCylinder3D3"},{"extensions":{},"name":"CSGCylinder3D4","rotation":[0,0,-0.70710676908493,0.70710676908493]},{"extensions":{},"name":"CSGCylinder3D6","rotation":[0,0,-0.70710676908493,0.70710676908493],"translation":[-10,11,0]},{"extensions":{},"name":"CSGCylinder3D7","rotation":[0,0,-0.70710676908493,0.70710676908493],"translation":[10,11,0]},{"extensions":{},"name":"CSGCylinder3D8","rotation":[0,0,-0.70710676908493,0.70710676908493],"translation":[10,-14,0]},{"extensions":{},"name":"CSGCylinder3D9","rotation":[0,0,-0.70710676908493,0.70710676908493],"translation":[-9,-7,0]},{"extensions":{},"name":"CSGCylinder3D5","rotation":[-0.5,0.5,-0.5,0.5],"translation":[0.000000524536972079659,12,0]}],"samplers":[{"magFilter":9729,"minFilter":9987,"wrapS":10497,"wrapT":10497}],"scene":0,"scenes":[{"nodes":[0]}],"textures":[{"sampler":0,"source":0},{"sampler":0,"source":1},{"sampler":0,"source":2},{"sampler":0,"source":3}]}